<svg t="1739411966380" class="icon" viewBox="0 0 1024 1024" version="1.1" xmlns="http://www.w3.org/2000/svg" p-id="7377" width="64" height="64"><path d="M144.4 375.5l40.9 0-16.2 0c-13.80000001 0.8-24.7 12.20000001-24.7 26.2l0-26.2zM540.3 696.5l0 40.9 0-16.2c-0.8-13.80000001-12.20000001-24.7-26.2-24.7l26.2 0zM144.4 615.4l0-40.9 1e-8 16.2c0.8 13.80000001 12.20000001 24.7 26.19999999 24.7l-26.2 0z" fill="#cdcdcd" p-id="7378"></path><path d="M882.70000001 493.9l-260.90000001 260.9 0-80.10000001c-3.2-29.6-25.3-53.6-54.1-59.39999999l-423 0 1e-8-239.1L580.9 376.2c22.59999999 0 40.99999999-18.3 41-41s-18.3-40.99999999-41-41l-464.5 0c-27.8 5.7-49.49999999 28.5-53.6 56.8L62.8 635.8c3.5 34.3 32.5 61.1 67.7 61.1l0.5 0 0 0.1 54.1 0 0 0.1L540 697.1 540 853.6c0 0.7 0 1.30000001 0.10000001 2 0 0.29999999 0 0.6 0.09999999 1 0 0.29999999 0 0.7 0.1 1 0 0.4 0.1 0.8 0.1 1.2 0 0.29999999 0.1 0.5 0.09999999 0.8 0.1 0.4 0.1 0.9 0.20000001 1.30000001 0 0.20000001 0.1 0.4 0.1 0.69999999 0.1 0.4 0.2 0.9 0.3 1.3 0 0.20000001 0.1 0.4 0.1 0.6l0.3 1.2c0.1 0.2 0.1 0.5 0.2 0.7 0.1 0.4 0.2 0.8 0.39999999 1.1 0.1 0.3 0.20000001 0.5 0.30000001 0.8 0.1 0.3 0.3 0.7 0.4 1l0.3 0.89999999c0.1 0.3 0.3 0.59999999 0.4 0.90000001 0.1 0.3 0.3 0.7 0.4 0.99999999 0.1 0.2 0.20000001 0.5 0.4 0.70000001 0.2 0.4 0.4 0.7 0.5 1.1 0.1 0.2 0.2 0.4 0.4 0.59999999 0.2 0.4 0.4 0.7 0.6 1.10000001 0.1 0.2 0.2 0.4 0.4 0.6 0.2 0.4 0.5 0.7 0.7 1.1 0.1 0.2 0.3 0.4 0.4 0.6 0.2 0.4 0.5 0.7 0.80000001 1.1 0.2 0.2 0.3 0.4 0.49999999 0.6 0.2 0.3 0.5 0.6 0.7 0.9 0.2 0.3 0.5 0.5 0.7 0.80000001 0.2 0.2 0.4 0.5 0.6 0.69999999 0.5 0.5 0.9 1 1.4 1.5 0.5 0.5 1 0.9 1.5 1.4 0.2 0.2 0.5 0.4 0.7 0.6 0.3 0.2 0.5 0.5 0.8 0.7 0.3 0.3 0.6 0.5 0.9 0.7 0.2 0.2 0.4 0.3 0.6 0.5 0.4 0.3 0.7 0.5 1.1 0.8 0.2 0.1 0.4 0.3 0.6 0.39999999 0.4 0.2 0.7 0.5 1.1 0.70000001 0.2 0.1 0.4 0.2 0.6 0.4 0.4 0.2 0.7 0.4 1.1 0.6 0.2 0.1 0.4 0.2 0.6 0.4 0.4 0.2 0.7 0.4 1.1 0.5 0.2 0.1 0.5 0.20000001 0.7 0.4 0.3 0.2 0.7 0.3 0.99999999 0.4 0.3 0.1 0.59999999 0.3 0.90000001 0.4l0.9 0.3c0.3 0.1 0.7 0.3 1 0.4 0.3 0.1 0.5 0.20000001 0.8 0.3 0.4 0.1 0.8 0.3 1.1 0.4 0.2 0.1 0.5 0.1 0.7 0.2l1.2 0.30000001c0.2 0.1 0.4 0.1 0.7 0.19999999 0.4 0.1 0.9 0.2 1.3 0.3 0.20000001 0 0.4 0.1 0.69999999 0.1 0.4 0.1 0.9 0.2 1.30000001 0.20000001 0.29999999 0 0.5 0.1 0.8 0.09999999 0.4 0.1 0.8 0.1 1.2 0.1 0.29999999 0 0.7 0.1 1 0.1 0.29999999 0 0.6 0.1 0.90000001 0.1 1.3 0.1 2.7 0.1 4.09999999 0 0.29999999 0 0.6 0 0.9-0.1 0.29999999 0 0.7 0 1-0.1 0.4 0 0.8-0.1 1.20000001-0.1 0.29999999 0 0.5-0.1 0.79999999-0.1 0.4-0.1 0.9-0.1 1.3-0.2 0.20000001 0 0.4-0.1 0.7-0.1 0.4-0.1 0.9-0.2 1.3-0.3 0.2-0.1 0.4-0.1 0.7-0.2l1.2-0.3c0.2-0.1 0.5-0.1 0.7-0.19999999 0.4-0.1 0.8-0.2 1.1-0.40000001 0.3-0.1 0.5-0.20000001 0.8-0.30000001 0.3-0.1 0.7-0.3 1-0.39999999 0.3-0.1 0.59999999-0.2 0.9-0.4 0.3-0.1 0.59999999-0.3 0.9-0.4 0.3-0.1 0.7-0.3 1-0.4 0.2-0.1 0.5-0.20000001 0.7-0.4 0.4-0.2 0.7-0.4 1.1-0.6 0.2-0.1 0.4-0.2 0.6-0.4 0.4-0.2 0.8-0.4 1.1-0.6 0.2-0.1 0.4-0.2 0.6-0.4 0.4-0.2 0.8-0.50000001 1.1-0.7 0.2-0.1 0.4-0.3 0.6-0.4 0.4-0.2 0.7-0.5 1.1-0.8 0.2-0.2 0.4-0.3 0.6-0.5 0.3-0.2 0.6-0.5 1-0.7 0.3-0.2 0.5-0.4 0.8-0.7 0.2-0.2 0.5-0.4 0.7-0.6 0.5-0.4 1-0.9 1.4-1.4L968.7 523.7l0.9-0.9c8-8 12-18.5 12-29s-4-21-12-29l-0.9-0.9-358.8-358.8c-16-16-41.9-16-57.9 0s-16 41.9 0 57.9L882.70000001 493.9z" fill="#cdcdcd" p-id="7379"></path></svg>